<svg id="Capa_1" enable-background="new 0 0 511.989 511.989" height="512" viewBox="0 0 511.989 511.989" width="512" xmlns="http://www.w3.org/2000/svg"><path d="m62.723 12.513c-9.732-10.427-27.203-3.541-27.203 10.722v268.796l112.242-188.406z" fill="#beebeb"/><path d="m35.863 21.012c-.104.748-.344 1.428-.344 2.223v268.796l23.481-39.412 56.693-121.976z" fill="#0096d2"/><path d="m401.163 12.513c9.732-10.427 27.203-3.541 27.203 10.722v268.796l-112.242-188.405z" fill="#beebeb"/><path d="m428.366 225.303v-200.578l-55.9 160.932z" fill="#00d2dc"/><circle cx="247.977" cy="292.032" fill="#beebeb" r="212.458"/><circle cx="302.429" cy="408.282" fill="#00d2dc" r="40.086"/><path d="m320.45 344.144h-35.407c-7.644 0-11.877 8.861-7.072 14.807l17.705 21.904c3.639 4.501 10.502 4.501 14.141 0l17.705-21.904c4.805-5.946.573-14.807-7.072-14.807z" fill="#0096d2"/><circle cx="211.9" cy="288.023" fill="#0096d2" r="32.069"/><circle cx="227.934" cy="280.006" fill="#fff" r="16.035"/><path d="m409.471 293.14c-2.399-1.267-3.098-4.572-1.794-6.841 1.19-2.069 2.21-4.228 3.333-6.333.06-.113.144-.202.212-.307-3.68-13.654-16.143-23.705-30.96-23.705-17.711 0-32.069 14.358-32.069 32.069s14.358 32.069 32.069 32.069c15.756 0 28.849-11.367 31.55-26.345-.8-.03-1.603-.217-2.341-.607z" fill="#0096d2"/><circle cx="396.297" cy="280.006" fill="#fff" r="16.035"/><path d="m123.71 292.032c0-102.214 72.192-187.543 168.363-207.847-14.228-3.004-28.972-4.611-44.095-4.611-117.337 0-212.458 95.12-212.458 212.458s95.12 212.458 212.458 212.458c15.123 0 29.867-1.607 44.095-4.611-96.171-20.304-168.363-105.633-168.363-207.847z" fill="#00d2dc"/><path d="m275.036 422.933 3.425 18.488c2.485 13.414 12.598 22.982 24.293 22.982 11.701 0 21.819-9.579 24.297-23.005l3.354-18.171-27.643-12.941z" fill="#0096d2"/><path d="m302.748 436.248c-4.427 0-8.017-3.586-8.017-8.017v-23.386c0-4.431 3.59-8.017 8.017-8.017 4.428 0 8.017 3.586 8.017 8.017v23.386c0 4.432-3.59 8.017-8.017 8.017z" fill="#00d2dc"/><g fill="#283c64"><path d="m342.832 414.601c-8.201 0-16.101-2.435-22.844-7.042-3.004-2.053-6.312-3.489-9.742-4.346v-13.286c2.057-1.044 3.906-2.507 5.404-4.359l17.705-21.904c4.057-5.02 4.85-11.755 2.068-17.579-2.781-5.824-8.519-9.442-14.973-9.442h-35.407c-6.455 0-12.192 3.618-14.973 9.443-2.781 5.824-1.988 12.56 2.068 17.579l17.706 21.904c1.497 1.852 3.346 3.314 5.403 4.358v13.287c-3.43.857-6.738 2.293-9.742 4.345-6.743 4.607-14.643 7.042-22.844 7.042-9.97 0-19.581-3.695-27.062-10.405-3.083-2.765-7.825-2.507-10.591.576s-2.508 7.825.576 10.591c10.237 9.181 23.405 14.238 37.077 14.238 2.09 0 4.167-.116 6.221-.345l2.197 12.296c3.107 17.393 16.429 30.017 31.676 30.017 15.259 0 28.583-12.636 31.681-30.045l2.183-12.267c2.052.228 4.126.345 6.215.345 13.671 0 26.839-5.056 37.077-14.237 3.083-2.765 3.342-7.507.576-10.591-2.765-3.084-7.507-3.342-10.591-.576-7.483 6.709-17.094 10.403-27.064 10.403zm-59.028-60.365c-.418-.518-.485-1.084-.198-1.686s.771-.906 1.437-.906h35.407c.667 0 1.15.305 1.438.906.287.601.22 1.168-.199 1.686l-17.704 21.903c-.395.488-.892.591-1.239.591s-.843-.103-1.237-.591zm35.863 84.66c-1.823 10.24-8.936 17.673-16.914 17.673-7.971 0-15.083-7.425-16.91-17.654l-2.384-13.346c3.668-1.483 7.19-3.358 10.506-5.624 5.17-3.532 12.392-3.532 17.561 0 3.318 2.267 6.842 4.143 10.512 5.626z"/><path d="m211.9 352.679h-128.277c-4.142 0-7.5 3.358-7.5 7.5s3.358 7.5 7.5 7.5h128.277c4.142 0 7.5-3.358 7.5-7.5s-3.358-7.5-7.5-7.5z"/><path d="m233.867 376.229c-4.142 0-7.46 3.358-7.46 7.5s3.398 7.5 7.54 7.5 7.5-3.358 7.5-7.5-3.358-7.5-7.5-7.5z"/><path d="m249.48 352.679h-.08c-4.142 0-7.46 3.358-7.46 7.5s3.398 7.5 7.54 7.5 7.5-3.358 7.5-7.5-3.358-7.5-7.5-7.5z"/><path d="m359.281 378.718c0-4.142-3.358-7.5-7.5-7.5h-.08c-4.142 0-7.46 3.358-7.46 7.5s3.398 7.5 7.54 7.5 7.5-3.358 7.5-7.5z"/><path d="m167.921 278.261c2.212-1.315 4.457-2.494 6.727-3.567-1.504 4.213-2.317 8.706-2.317 13.329 0 21.819 17.751 39.569 39.569 39.569 6.313 0 12.586-1.524 18.163-4.408 3.449-1.783 5.186-5.901 3.755-9.51-1.675-4.224-6.575-5.96-10.483-3.899-3.545 1.869-7.393 2.817-11.436 2.817-13.547 0-24.569-11.022-24.569-24.569 0-.079 0-.159.001-.238.11-11.565 10.046-20.546 21.603-20.089 2.734.108 5.492.364 8.275.768 10.832 1.572 20.285 9.088 24.671 19.614l11.201 26.881c1.2 2.88 3.988 4.617 6.926 4.617 1.168 0 2.359-.274 3.483-.861 3.494-1.822 4.838-6.164 3.322-9.801l-11.085-26.606c-6.404-15.37-20.338-26.363-36.363-28.689-14.521-2.108-36.618-1.747-59.426 11.938-3.843 2.306-4.877 7.512-1.98 11.142 2.378 2.982 6.683 3.511 9.963 1.562z"/><path d="m432.225 265.557c-22.808-13.686-44.906-14.046-59.426-11.938-16.025 2.326-29.958 13.319-36.362 28.689l-11.092 26.619c-1.516 3.64-.16 7.98 3.341 9.795 1.122.582 2.307.854 3.47.854 2.937 0 5.726-1.737 6.926-4.617l4.771-11.45c6.039 14.144 20.084 24.083 36.41 24.083 17.415 0 32.972-11.61 37.93-28.268 1.104-3.71-.663-7.806-4.243-9.281-4.203-1.731-8.856.592-10.086 4.837-3.023 10.428-12.728 17.711-23.601 17.711-13.547 0-24.569-11.022-24.569-24.569 0-.042 0-.084 0-.126.038-7.431 4.594-14.144 11.388-17.155 2.496-1.106 5.14-1.882 7.871-2.278 17.507-2.542 34.084.754 49.28 9.792 3.516 2.091 8.186 1.257 10.417-2.172 2.328-3.58 1.206-8.347-2.425-10.526z"/><path d="m476.469 352.679h-16.971c5.553-19.475 8.437-39.838 8.437-60.647 0-41.041-11.177-80.359-32.069-114.5v-154.296c0-9.6-5.771-18.077-14.702-21.598-8.929-3.52-18.934-1.261-25.484 5.758l-72.598 77.784c-23.757-8.609-49.084-13.105-75.104-13.105-34.58 0-67.938 7.934-98.007 22.926l-81.765-87.606c-6.551-7.018-16.555-9.277-25.484-5.757-8.932 3.521-14.702 11.998-14.702 21.598v268.796c0 58.753 22.879 113.989 64.424 155.533 41.544 41.545 96.781 64.424 155.534 64.424s113.989-22.879 155.533-64.424c10.014-10.014 18.932-20.83 26.718-32.292 2.643 1.875 5.217 3.903 7.644 6.093 1.435 1.294 3.231 1.932 5.022 1.932 2.049 0 4.09-.834 5.57-2.475 2.775-3.075 2.532-7.818-.543-10.593-3.087-2.786-6.356-5.33-9.691-7.66 6.5-11.144 11.983-22.812 16.397-34.892h21.841c4.142 0 7.5-3.358 7.5-7.5s-3.358-7.499-7.5-7.499zm-69.824-335.048c3.541-3.793 7.797-2.518 9.018-2.038 1.134.447 4.646 2.186 5.14 6.591l-33.694 99.458c-15.101-12.377-31.611-22.571-49.137-30.434zm14.221 51.118v87.269c-5.362-6.788-11.145-13.31-17.355-19.519-1.387-1.387-2.792-2.75-4.209-4.095zm-372.644-53.156c1.221-.481 5.478-1.756 9.018 2.037l79.124 84.775c-6.923 4.091-13.64 8.574-20.123 13.443l-72.946-94.807c.911-3.565 3.898-5.042 4.927-5.448zm-5.202 29.69 61.529 79.969c-3.395 2.929-6.706 5.984-9.945 9.138l-18.146-19.797c-2.798-3.054-7.542-3.26-10.597-.461-3.053 2.799-3.26 7.543-.461 10.597l18.786 20.495c-1.735 1.931-3.427 3.89-5.087 5.872l-13.385-6.735c-3.7-1.861-8.208-.372-10.071 3.329-1.862 3.7-.372 8.209 3.329 10.071l10.718 5.393c-10.992 15.138-19.934 31.499-26.67 48.742zm400.755 307.396h-63.513c-4.142 0-7.5 3.358-7.5 7.5s3.358 7.5 7.5 7.5h58.201c-3.731 9.363-8.135 18.387-13.15 27.015-15.778-8.414-29.946-12.155-30.815-12.38-4.012-1.041-8.102 1.374-9.138 5.385-1.037 4.01 1.375 8.102 5.385 9.138.186.048 12.638 3.334 26.534 10.581-36.944 54.035-99.048 89.572-169.302 89.572-57.533 0-109.595-23.838-146.856-62.144 45.43-28.743 95.127-35.089 95.647-35.153 4.109-.499 7.039-4.233 6.542-8.344-.496-4.111-4.223-7.05-8.344-6.547-2.297.277-55.133 6.96-104.042 38.761-29.881-35.621-47.904-81.508-47.904-131.531 0-113.014 91.943-204.958 204.958-204.958s204.958 91.943 204.958 204.958c-.001 21.104-3.21 41.473-9.161 60.647z"/></g></svg>