<svg id="Capa_1" enable-background="new 0 0 511.989 511.989" height="512" viewBox="0 0 511.989 511.989" width="512" xmlns="http://www.w3.org/2000/svg"><path d="m62.723 12.513c-9.732-10.427-27.203-3.541-27.203 10.722v268.796l112.242-188.406z" fill="#beebeb"/><path d="m35.863 21.012c-.104.748-.344 1.428-.344 2.223v268.796l23.481-39.412 56.693-121.976z" fill="#0096d2"/><path d="m401.163 12.513c9.732-10.427 27.203-3.541 27.203 10.722v268.796l-112.242-188.405z" fill="#beebeb"/><path d="m428.366 225.303v-200.578l-55.9 160.932z" fill="#00d2dc"/><circle cx="247.977" cy="292.032" fill="#beebeb" r="212.458"/><circle cx="293.744" cy="406.612" fill="#00d2dc" r="40.086"/><path d="m320.45 344.144h-35.407c-7.644 0-11.877 8.861-7.072 14.807l17.705 21.904c3.639 4.501 10.502 4.501 14.141 0l17.705-21.904c4.805-5.946.573-14.807-7.072-14.807z" fill="#0096d2"/><circle cx="211.9" cy="288.023" fill="#0096d2" r="32.069"/><circle cx="227.934" cy="280.006" fill="#fff" r="16.035"/><path d="m409.959 292.775c-.929-.735-1.821-1.515-2.75-2.25l.464-19.155c-5.628-9.243-15.798-15.416-27.411-15.416-17.711 0-32.069 14.358-32.069 32.069s14.358 32.069 32.069 32.069c15.729 0 28.804-11.328 31.536-26.268-.644-.247-1.267-.597-1.839-1.049z" fill="#0096d2"/><circle cx="396.297" cy="280.006" fill="#fff" r="16.035"/><path d="m123.71 292.032c0-102.214 72.192-187.543 168.363-207.847-14.228-3.004-28.972-4.611-44.095-4.611-117.337 0-212.458 95.12-212.458 212.458s95.12 212.458 212.458 212.458c15.123 0 29.867-1.607 44.095-4.611-96.171-20.304-168.363-105.633-168.363-207.847z" fill="#00d2dc"/><path d="m282.618 445.362h15.391c11.664 0 18.12-13.52 10.788-22.591l-7.695-9.52c-5.552-6.869-16.024-6.869-21.576 0l-7.695 9.52c-7.333 9.071-.877 22.591 10.787 22.591z" fill="#fff"/><g fill="#283c64"><path d="m320.45 336.644h-35.407c-6.455 0-12.192 3.618-14.973 9.443-2.781 5.824-1.988 12.56 2.068 17.579l17.706 21.904c3.165 3.915 7.868 6.161 12.902 6.161 5.035 0 9.738-2.246 12.904-6.161l17.705-21.904c4.057-5.02 4.85-11.755 2.068-17.579-2.781-5.825-8.519-9.443-14.973-9.443zm1.238 17.592-17.704 21.903c-.395.488-.892.591-1.239.591s-.843-.103-1.237-.591l-17.705-21.904c-.418-.518-.485-1.084-.198-1.686s.771-.906 1.437-.906h35.407c.667 0 1.15.305 1.438.906.287.602.22 1.169-.199 1.687z"/><path d="m306.934 408.535c-4.077-5.044-10.135-7.937-16.621-7.937-6.485 0-12.543 2.893-16.62 7.937l-7.695 9.521c-5.226 6.465-6.247 15.142-2.665 22.644 3.583 7.502 10.972 12.162 19.285 12.162h15.391c8.313 0 15.703-4.66 19.286-12.162 3.582-7.502 2.561-16.178-2.665-22.644zm-3.176 25.701c-.521 1.09-2.123 3.626-5.75 3.626h-15.391c-3.626 0-5.229-2.536-5.749-3.625-.521-1.09-1.485-3.93.794-6.75l7.695-9.521c1.664-2.059 3.818-2.366 4.955-2.366s3.291.307 4.955 2.366l7.695 9.521c2.281 2.819 1.316 5.659.796 6.749z"/><path d="m211.9 352.679h-128.277c-4.142 0-7.5 3.358-7.5 7.5s3.358 7.5 7.5 7.5h128.277c4.142 0 7.5-3.358 7.5-7.5s-3.358-7.5-7.5-7.5z"/><path d="m233.947 376.229h-.08c-4.142 0-7.46 3.358-7.46 7.5s3.398 7.5 7.54 7.5 7.5-3.358 7.5-7.5-3.358-7.5-7.5-7.5z"/><path d="m249.48 352.679h-.08c-4.142 0-7.46 3.358-7.46 7.5s3.398 7.5 7.54 7.5 7.5-3.358 7.5-7.5-3.358-7.5-7.5-7.5z"/><path d="m351.781 371.218h-.08c-4.142 0-7.46 3.358-7.46 7.5s3.398 7.5 7.54 7.5 7.5-3.358 7.5-7.5-3.358-7.5-7.5-7.5z"/><path d="m266.897 309.12-14.127-32.963c-8.413-19.632-29.64-31.018-50.484-27.076-14.43 2.73-28.678 8.273-42.348 16.476-3.552 2.131-4.704 6.738-2.572 10.29 2.13 3.551 6.738 4.703 10.29 2.572 2.347-1.408 4.71-2.725 7.087-3.955-1.551 4.232-2.411 8.794-2.411 13.558 0 21.818 17.751 39.569 39.569 39.569 6.414 0 12.787-1.572 18.431-4.547 3.664-1.932 5.069-6.468 3.137-10.132s-6.468-5.069-10.132-3.137c-3.545 1.869-7.393 2.817-11.436 2.817-13.547 0-24.569-11.022-24.569-24.569s11.022-24.7 24.569-24.7c.328 0 .574.042.965.063 11.209.842 21.509 7.926 26.118 18.681l14.127 32.963c1.219 2.844 3.987 4.547 6.897 4.547.986 0 1.988-.196 2.951-.608 3.806-1.633 5.57-6.042 3.938-9.849z"/><path d="m339.392 276.323-14.127 32.964c-1.632 3.807.132 8.216 3.939 9.848.963.413 1.965.608 2.951.608 2.91 0 5.678-1.704 6.897-4.548l4.907-11.45c6.094 14.017 20.069 23.847 36.303 23.847 17.508 0 33.138-11.734 38.008-28.536 1.153-3.978-1.137-8.138-5.116-9.292-3.98-1.154-8.138 1.137-9.292 5.116-3.023 10.428-12.728 17.711-23.601 17.711-13.547 0-24.569-11.022-24.569-24.569 0-9.576 5.51-17.884 13.523-21.935 5.506-2.428 11.715-3.265 17.871-2.102 8.266 1.564 25.49 11.079 31.429 14.614 3.56 2.117 8.162.95 10.281-2.609 2.118-3.559.952-8.161-2.607-10.28-2.417-1.439-23.968-14.127-36.313-16.463-20.839-3.942-42.07 7.443-50.484 27.076z"/><path d="m476.469 352.679h-16.971c5.553-19.475 8.437-39.838 8.437-60.647 0-41.041-11.177-80.359-32.069-114.5v-154.296c0-9.6-5.771-18.077-14.702-21.598-8.929-3.52-18.934-1.261-25.484 5.758l-72.598 77.784c-23.757-8.609-49.084-13.105-75.104-13.105-34.58 0-67.938 7.934-98.007 22.926l-81.765-87.606c-6.551-7.018-16.555-9.277-25.484-5.757-8.932 3.521-14.702 11.998-14.702 21.598v268.796c0 58.753 22.879 113.989 64.424 155.533 41.544 41.545 96.781 64.424 155.534 64.424s113.989-22.879 155.533-64.424c10.014-10.014 18.932-20.83 26.718-32.292 2.643 1.875 5.217 3.903 7.644 6.093 1.435 1.294 3.231 1.932 5.022 1.932 2.049 0 4.09-.834 5.57-2.475 2.775-3.075 2.532-7.818-.543-10.593-3.087-2.786-6.356-5.33-9.691-7.66 6.5-11.144 11.983-22.812 16.397-34.892h21.841c4.142 0 7.5-3.358 7.5-7.5s-3.358-7.499-7.5-7.499zm-69.824-335.048c3.541-3.793 7.797-2.518 9.018-2.038 1.134.447 4.646 2.186 5.14 6.591l-33.694 99.458c-15.101-12.377-31.611-22.571-49.137-30.434zm14.221 51.118v87.269c-5.362-6.788-11.145-13.31-17.355-19.519-1.387-1.387-2.792-2.75-4.209-4.095zm-372.644-53.156c1.221-.481 5.478-1.756 9.018 2.037l79.124 84.775c-6.923 4.091-13.64 8.574-20.123 13.443l-72.946-94.807c.911-3.565 3.898-5.042 4.927-5.448zm-5.202 29.69 61.529 79.969c-3.395 2.929-6.706 5.984-9.945 9.138l-18.146-19.797c-2.798-3.054-7.542-3.26-10.597-.461-3.053 2.799-3.26 7.543-.461 10.597l18.786 20.495c-1.735 1.931-3.427 3.89-5.087 5.872l-13.385-6.735c-3.7-1.861-8.208-.372-10.071 3.329-1.862 3.7-.372 8.209 3.329 10.071l10.718 5.393c-10.992 15.138-19.934 31.499-26.67 48.742zm400.755 307.396h-63.513c-4.142 0-7.5 3.358-7.5 7.5s3.358 7.5 7.5 7.5h58.201c-3.731 9.363-8.135 18.387-13.15 27.015-15.778-8.414-29.946-12.155-30.815-12.38-4.012-1.041-8.102 1.374-9.138 5.385-1.037 4.01 1.375 8.102 5.385 9.138.186.048 12.638 3.334 26.534 10.581-36.944 54.035-99.048 89.572-169.302 89.572-57.533 0-109.595-23.838-146.856-62.144 45.43-28.743 95.127-35.089 95.647-35.153 4.109-.499 7.039-4.233 6.542-8.344-.496-4.111-4.223-7.05-8.344-6.547-2.297.277-55.133 6.96-104.042 38.761-29.881-35.621-47.904-81.508-47.904-131.531 0-113.014 91.943-204.958 204.958-204.958s204.958 91.943 204.958 204.958c-.001 21.104-3.21 41.473-9.161 60.647z"/></g></svg>