<svg id="Capa_1" enable-background="new 0 0 511.989 511.989" height="512" viewBox="0 0 511.989 511.989" width="512" xmlns="http://www.w3.org/2000/svg"><path d="m62.723 12.513c-9.732-10.427-27.203-3.541-27.203 10.722v268.796l112.242-188.406z" fill="#beebeb"/><path d="m35.863 21.012c-.104.748-.344 1.428-.344 2.223v268.796l23.481-39.412 56.693-121.976z" fill="#0096d2"/><path d="m401.163 12.513c9.732-10.427 27.203-3.541 27.203 10.722v268.796l-112.242-188.405z" fill="#beebeb"/><path d="m428.366 225.303v-200.578l-55.9 160.932z" fill="#00d2dc"/><circle cx="247.977" cy="292.032" fill="#beebeb" r="212.458"/><circle cx="302.429" cy="408.282" fill="#00d2dc" r="34.554"/><path d="m320.45 344.144h-35.407c-7.644 0-11.877 8.861-7.072 14.807l17.705 21.904c3.639 4.501 10.502 4.501 14.141 0l17.705-21.904c4.805-5.946.573-14.807-7.072-14.807z" fill="#0096d2"/><circle cx="211.9" cy="288.023" fill="#0096d2" r="32.069"/><circle cx="227.934" cy="280.006" fill="#fff" r="16.035"/><circle cx="380.262" cy="288.023" fill="#0096d2" r="32.069"/><circle cx="396.297" cy="278.506" fill="#fff" r="16.035"/><path d="m123.71 292.032c0-102.214 72.192-187.543 168.363-207.847-14.228-3.004-28.972-4.611-44.095-4.611-117.337 0-212.458 95.12-212.458 212.458s95.12 212.458 212.458 212.458c15.123 0 29.867-1.607 44.095-4.611-96.171-20.304-168.363-105.633-168.363-207.847z" fill="#00d2dc"/><g fill="#283c64"><path d="m342.832 410.843c-8.202 0-16.101-2.435-22.844-7.042-3.004-2.052-6.312-3.488-9.742-4.345v-9.528c2.057-1.044 3.906-2.507 5.404-4.359l17.705-21.904c4.057-5.02 4.85-11.755 2.068-17.579-2.781-5.824-8.519-9.442-14.973-9.442h-35.407c-6.455 0-12.192 3.618-14.973 9.443-2.781 5.824-1.988 12.56 2.068 17.579l17.706 21.904c1.497 1.852 3.346 3.314 5.403 4.358v9.529c-3.43.857-6.738 2.293-9.742 4.345-6.743 4.607-14.642 7.042-22.844 7.042-4.142 0-7.5 3.358-7.5 7.5s3.358 7.5 7.5 7.5c11.234 0 22.06-3.339 31.306-9.657 5.169-3.533 12.391-3.532 17.561 0 9.247 6.318 20.072 9.657 31.306 9.657 4.142 0 7.5-3.358 7.5-7.5s-3.359-7.501-7.502-7.501zm-40.086-34.113c-.347 0-.843-.103-1.237-.591l-17.705-21.904c-.418-.518-.485-1.084-.198-1.686s.771-.906 1.437-.906h35.407c.667 0 1.15.305 1.438.906.287.601.22 1.168-.199 1.686l-17.704 21.903c-.395.489-.892.592-1.239.592z"/><path d="m211.9 352.679h-128.277c-4.142 0-7.5 3.358-7.5 7.5s3.358 7.5 7.5 7.5h128.277c4.142 0 7.5-3.358 7.5-7.5s-3.358-7.5-7.5-7.5z"/><path d="m233.947 376.229h-.08c-4.142 0-7.46 3.358-7.46 7.5s3.398 7.5 7.54 7.5 7.5-3.358 7.5-7.5-3.358-7.5-7.5-7.5z"/><path d="m249.48 352.679h-.08c-4.142 0-7.46 3.358-7.46 7.5s3.398 7.5 7.54 7.5 7.5-3.358 7.5-7.5-3.358-7.5-7.5-7.5z"/><path d="m351.781 371.218h-.08c-4.142 0-7.46 3.358-7.46 7.5s3.398 7.5 7.54 7.5 7.5-3.358 7.5-7.5-3.358-7.5-7.5-7.5z"/><path d="m165.776 269.859c4.679-1.777 9.196-3.169 13.566-4.222-4.435 6.438-7.011 14.191-7.011 22.386 0 21.819 17.751 39.569 39.569 39.569 6.312 0 12.585-1.523 18.162-4.407 3.449-1.783 5.187-5.901 3.756-9.51-1.674-4.224-6.574-5.96-10.483-3.899-3.545 1.869-7.393 2.817-11.436 2.817-13.547 0-24.569-11.022-24.569-24.569 0-9.567 5.643-18.167 14.002-22.176 2.952-1.416 6.315-1.711 9.491-.916 3.985.998 7.752 2.464 11.29 4.405 23.896 13.109 30.455 43.822 30.538 44.224.719 3.558 3.846 6.017 7.344 6.017.487 0 .982-.048 1.479-.147 4.062-.813 6.696-4.764 5.884-8.825-.307-1.535-7.865-37.786-37.911-54.354-19.051-10.505-42.378-10.602-69.334-.285-3.95 1.512-5.885 6.002-4.225 9.93 1.595 3.771 6.059 5.416 9.888 3.962z"/><path d="m324.801 310.618c-.804 4.063 1.838 8.009 5.901 8.813.492.097.981.144 1.464.144 3.507 0 6.642-2.474 7.349-6.045.024-.122 1.031-4.984 3.696-11.629 5.634 14.992 20.114 25.69 37.05 25.69 21.632 0 39.265-17.449 39.565-39.011.058-4.195-3.179-7.991-7.375-8.057-4.198-.066-7.621 3.317-7.621 7.499 0 13.547-11.021 24.569-24.569 24.569s-24.569-11.022-24.569-24.569c0-.946.164-2.181.388-3.431.676-3.76 2.671-7.154 5.572-9.639 2.468-2.114 5.189-4.047 8.191-5.699 14.719-8.102 33.403-7.897 55.54.604 3.815 1.465 8.276-.182 9.879-3.941 1.672-3.922-.247-8.418-4.192-9.943-26.583-10.28-49.617-10.233-68.46.139-29.979 16.503-37.503 52.962-37.809 54.506z"/><path d="m476.469 352.679h-16.971c5.553-19.475 8.437-39.838 8.437-60.647 0-41.041-11.177-80.359-32.069-114.5v-154.296c0-9.6-5.771-18.077-14.702-21.598-8.929-3.52-18.934-1.261-25.484 5.758l-72.598 77.784c-23.757-8.609-49.084-13.105-75.104-13.105-34.58 0-67.938 7.934-98.007 22.926l-81.765-87.606c-6.551-7.018-16.555-9.277-25.484-5.757-8.932 3.521-14.702 11.998-14.702 21.598v268.796c0 58.753 22.879 113.989 64.424 155.533 41.544 41.545 96.781 64.424 155.534 64.424s113.989-22.879 155.533-64.424c10.014-10.014 18.932-20.83 26.718-32.292 2.643 1.875 5.217 3.903 7.644 6.093 1.435 1.294 3.231 1.932 5.022 1.932 2.049 0 4.09-.834 5.57-2.475 2.775-3.075 2.532-7.818-.543-10.593-3.087-2.786-6.356-5.33-9.691-7.66 6.5-11.144 11.983-22.812 16.397-34.892h21.841c4.142 0 7.5-3.358 7.5-7.5s-3.358-7.499-7.5-7.499zm-69.824-335.048c3.541-3.793 7.797-2.518 9.018-2.038 1.134.447 4.646 2.186 5.14 6.591l-33.694 99.458c-15.101-12.377-31.611-22.571-49.137-30.434zm14.221 51.118v87.269c-5.362-6.788-11.145-13.31-17.355-19.519-1.387-1.387-2.792-2.75-4.209-4.095zm-372.644-53.156c1.221-.481 5.478-1.756 9.018 2.037l79.124 84.775c-6.923 4.091-13.64 8.574-20.123 13.443l-72.946-94.807c.911-3.565 3.898-5.042 4.927-5.448zm-5.202 29.69 61.529 79.969c-3.395 2.929-6.706 5.984-9.945 9.138l-18.146-19.797c-2.798-3.054-7.542-3.26-10.597-.461-3.053 2.799-3.26 7.543-.461 10.597l18.786 20.495c-1.735 1.931-3.427 3.89-5.087 5.872l-13.385-6.735c-3.7-1.861-8.208-.372-10.071 3.329-1.862 3.7-.372 8.209 3.329 10.071l10.718 5.393c-10.992 15.138-19.934 31.499-26.67 48.742zm400.755 307.396h-63.513c-4.142 0-7.5 3.358-7.5 7.5s3.358 7.5 7.5 7.5h58.201c-3.731 9.363-8.135 18.387-13.15 27.015-15.778-8.414-29.946-12.155-30.815-12.38-4.012-1.041-8.102 1.374-9.138 5.385-1.037 4.01 1.375 8.102 5.385 9.138.186.048 12.638 3.334 26.534 10.581-36.944 54.035-99.048 89.572-169.302 89.572-57.533 0-109.595-23.838-146.856-62.144 45.43-28.743 95.127-35.089 95.647-35.153 4.109-.499 7.039-4.233 6.542-8.344-.496-4.111-4.223-7.05-8.344-6.547-2.297.277-55.133 6.96-104.042 38.761-29.881-35.621-47.904-81.508-47.904-131.531 0-113.014 91.943-204.958 204.958-204.958s204.958 91.943 204.958 204.958c-.001 21.104-3.21 41.473-9.161 60.647z"/></g></svg>